<?xml version="1.0" encoding="UTF-8"?>
<svg width="24px" height="24px" viewBox="0 0 24 24" version="1.1" xmlns="http://www.w3.org/2000/svg" xmlns:xlink="http://www.w3.org/1999/xlink">
    <title>邮件</title>
    <g id="邮件" stroke="none" stroke-width="1" fill="none" fill-rule="evenodd">
        <path d="M18.75,4.5 C20.4068542,4.5 21.75,5.84314575 21.75,7.5 L21.75,16.5 C21.75,18.1568542 20.4068542,19.5 18.75,19.5 L5.25,19.5 C3.59314575,19.5 2.25,18.1568542 2.25,16.5 L2.25,7.5 C2.25,5.84314575 3.59314575,4.5 5.25,4.5 L18.75,4.5 Z M20.3784774,6.79721807 C19.9903417,6.31204839 19.2823877,6.23338685 18.7972181,6.62152259 L18.7972181,6.62152259 L12,12.059 L5.20278193,6.62152259 L5.09560478,6.54547353 C4.6181077,6.24669823 3.98193435,6.34670337 3.62152259,6.79721807 C3.23338685,7.28238775 3.31204839,7.99034167 3.79721807,8.37847741 L3.79721807,8.37847741 L11.2972181,14.3784774 L11.4033388,14.4538038 C11.8041917,14.7048916 12.3261502,14.6797828 12.7027819,14.3784774 L12.7027819,14.3784774 L20.2027819,8.37847741 L20.3005028,8.29060803 C20.6968074,7.89034205 20.7388892,7.24773277 20.3784774,6.79721807 Z" id="形状结合" fill="#82778C"></path>
    </g>
</svg>