<?xml version="1.0" encoding="UTF-8"?>
<svg width="24px" height="24px" viewBox="0 0 24 24" version="1.1" xmlns="http://www.w3.org/2000/svg" xmlns:xlink="http://www.w3.org/1999/xlink">
    <title>群组</title>
    <g id="群组" stroke="none" stroke-width="1" fill="none" fill-rule="evenodd">
        <path d="M9.75,4.5 C12.5114237,4.5 14.75,6.67074061 14.75,9.34848485 C14.75,11.0295648 13.8677119,12.5108198 12.5276638,13.3805863 C15.2946956,14.1993902 17.25,16.208074 17.25,18.5559928 C17.25,21.6328509 2.25,21.6328509 2.25,18.5559928 C2.25,16.208074 4.20530437,14.1993902 6.97233267,13.379415 C5.63228809,12.5108198 4.75,11.0295648 4.75,9.34848485 C4.75,6.67074061 6.98857625,4.5 9.75,4.5 Z M14.25,3 C17.0114237,3 19.25,5.17074061 19.25,7.84848485 C19.25,9.52956475 18.3677119,11.0108198 17.0276638,11.8805863 C19.7946956,12.6993902 21.75,14.708074 21.75,17.0559928 C21.75,17.970479 20.424955,18.6131668 18.5625096,18.9840563 C18.5879768,18.8460994 18.6,18.7035566 18.6,18.5559928 L18.5946237,18.3099449 C18.501816,16.1901668 17.213791,14.3216993 15.223718,13.1041649 L14.9317455,12.9329009 C15.6772966,11.9068878 16.1,10.6632077 16.1,9.34848485 C16.1,6.67891453 14.3751184,4.41277481 11.9630441,3.53706958 C12.648321,3.19334224 13.4258762,3 14.25,3 Z" id="形状结合" fill="#82778C"></path>
    </g>
</svg>